<?xml version="1.0" encoding="iso-8859-1"?>
<!-- Generator: Adobe Illustrator 25.3.0, SVG Export Plug-In . SVG Version: 6.00 Build 0)  -->
<svg version="1.1" id="Ebene_1" xmlns="http://www.w3.org/2000/svg" xmlns:xlink="http://www.w3.org/1999/xlink" x="0px" y="0px"
	 width="64px" height="64px" viewBox="0 0 64 64" enable-background="new 0 0 64 64" xml:space="preserve">
<g>
	<path d="M53.25,9.825v43.426c0,3.156,1.848,3.772,6.468,4.543v0.77H42.24v-0.77c4.62-0.771,6.545-1.387,6.545-4.543V9.979
		L31.692,59.333h-1.232L12.597,7.746v45.505c0,3.156,1.848,3.772,6.467,4.543v0.77H4.205v-0.77c4.619-0.771,6.544-1.387,6.544-4.543
		V9.825c0-3.157-1.925-3.773-6.544-4.543V4.667H16.37l16.092,46.737L48.63,4.667h11.165v0.616C55.175,6.052,53.25,6.669,53.25,9.825
		z"/>
</g>
</svg>
