<?xml version="1.0" encoding="utf-8"?>
<!-- Generator: Adobe Illustrator 25.2.3, SVG Export Plug-In . SVG Version: 6.00 Build 0)  -->
<svg version="1.1" id="Layer_1" xmlns="http://www.w3.org/2000/svg" xmlns:xlink="http://www.w3.org/1999/xlink" x="0px" y="0px"
	 viewBox="0 0 302 1736.9" style="enable-background:new 0 0 302 1736.9;" xml:space="preserve">
<style type="text/css">
	.st0{clip-path:url(#SVGID_2_);}
</style>
<g>
	<defs>
		<rect id="SVGID_1_" y="0" width="302" height="1736.9"/>
	</defs>
	<clipPath id="SVGID_2_">
		<use xlink:href="#SVGID_1_"  style="overflow:visible;"/>
	</clipPath>
	<g class="st0">
		<path d="M62,1737H43.5V18.3h-3.3V1737H21.7V18.3h-3.3V1737H-0.1V-0.2h53c2.4-0.1,4.8,0.9,6.5,2.6c1.7,1.7,2.7,4.1,2.6,6.5V1737z
			 M96.5-0.2c2.5-0.1,4.8,1,6.5,2.8s2.7,4.2,2.6,6.6V1737H87.1V105.8h-3.3V1737H65.3V9.2c0-2.5,0.9-4.9,2.6-6.6
			c1.7-1.8,4-2.8,6.5-2.8H96.5z M87.2,87.3v-69h-3.3v69H87.2z M149.3,1737h-18.5V116.6h-3.3V1737H109V-0.2h31.2
			c2.4-0.1,4.8,0.9,6.5,2.6c1.7,1.7,2.7,4.1,2.6,6.5v76.5c0,2.5-0.9,4.9-2.6,6.6c-1.7,1.8-4,2.8-6.5,2.8h-12.7v3.3h12.7
			c2.5-0.1,4.8,1,6.5,2.8c1.7,1.8,2.7,4.2,2.6,6.6V1737z M127.5,76.3h3.3v-58h-3.3V76.3z M192.9,1737h-18.5V18.3h-3.3v76.5h-18.5
			v-95h62.1v95h-18.5V18.3h-3.3V1737z M236.6,105.8V1737h-18.5V-0.2h18.5v87.5h3.3V-0.2h18.5V1737h-18.5V105.8H236.6z M292.9-0.2
			c2.5-0.1,4.8,1,6.5,2.8c1.7,1.8,2.7,4.2,2.6,6.6V1737h-18.5V105.8h-3.3V1737h-18.5V9.2c0-2.5,0.9-4.9,2.6-6.6
			c1.7-1.8,4-2.8,6.5-2.8H292.9z M283.5,87.3v-69h-3.3v69H283.5z"/>
	</g>
</g>
</svg>
